<svg xmlns="http://www.w3.org/2000/svg" width="14" height="14" fill="none" xmlns:v="https://vecta.io/nano"><g clip-path="url(#A)" stroke="#22c55e" stroke-width="1.167" stroke-linecap="round" stroke-linejoin="round"><path d="M12.717 5.833a5.84 5.84 0 0 1-.538 3.851 5.83 5.83 0 0 1-2.839 2.657c-1.223.535-2.591.635-3.878.283s-2.414-1.135-3.194-2.217a5.83 5.83 0 0 1-1.091-3.732c.074-1.332.602-2.599 1.497-3.589s2.102-1.643 3.42-1.851a5.83 5.83 0 0 1 3.823.71M5.25 6.417L7 8.167l5.833-5.833"/></g><defs><clipPath id="A"><path fill="#fff" d="M0 0h14v14H0z"/></clipPath></defs></svg>