<svg xmlns="http://www.w3.org/2000/svg" width="14" height="14" fill="none" xmlns:v="https://vecta.io/nano"><g clip-path="url(#A)" stroke="#f59e0b" stroke-width="1.167" stroke-linejoin="round"><path d="M9.029 7.519l.884 4.974c.01.059.002.119-.024.172s-.066.099-.118.128-.111.043-.17.038-.116-.027-.161-.065L7.352 11.2c-.101-.075-.223-.116-.349-.116s-.248.041-.349.116l-2.092 1.567a.29.29 0 0 1-.331.027c-.051-.03-.092-.074-.118-.128s-.034-.114-.024-.172l.883-4.974" stroke-linecap="round"/><path d="M7 8.167a3.5 3.5 0 1 0 0-7 3.5 3.5 0 1 0 0 7z"/></g><defs><clipPath id="A"><path fill="#fff" d="M0 0h14v14H0z"/></clipPath></defs></svg>