<svg xmlns="http://www.w3.org/2000/svg" width="16" height="16" fill="none" stroke="#90a1b9" stroke-width="1.333" stroke-linejoin="round" xmlns:v="https://vecta.io/nano"><path d="M6 2H2.667C2.298 2 2 2.298 2 2.667v4.667c0 .368.298.667.667.667H6c.368 0 .667-.298.667-.667V2.667C6.667 2.298 6.368 2 6 2zm7.334 0H10c-.368 0-.667.298-.667.667v2c0 .368.298.667.667.667h3.333c.368 0 .667-.298.667-.667v-2c0-.368-.298-.667-.667-.667zm0 6H10c-.368 0-.667.298-.667.667v4.667c0 .368.298.667.667.667h3.333a.67.67 0 0 0 .667-.667V8.667c0-.368-.298-.667-.667-.667zM6 10.667H2.667c-.368 0-.667.298-.667.667v2c0 .368.298.667.667.667H6a.67.67 0 0 0 .667-.667v-2c0-.368-.298-.667-.667-.667z"/></svg>