<svg xmlns="http://www.w3.org/2000/svg" width="11" height="11" fill="none" xmlns:v="https://vecta.io/nano"><g clip-path="url(#A)" stroke="#717182" stroke-width=".917" stroke-linejoin="round"><path d="M6.875.917h-2.75a.46.46 0 0 0-.458.458v.917a.46.46 0 0 0 .458.458h2.75a.46.46 0 0 0 .458-.458v-.917a.46.46 0 0 0-.458-.458z"/><g stroke-linecap="round"><path d="M7.334 1.833h.917c.243 0 .476.097.648.268s.268.405.268.648v6.417c0 .243-.097.476-.268.648s-.405.269-.648.269h-5.5c-.243 0-.476-.097-.648-.269s-.268-.405-.268-.648V2.75c0-.243.097-.476.268-.648s.405-.268.648-.268h.917"/><path d="M5.5 5.042h1.833M5.5 7.333h1.833M3.667 5.042h.005m-.005 2.291h.005"/></g></g><defs><clipPath id="A"><path fill="#fff" d="M0 0h11v11H0z"/></clipPath></defs></svg>