<svg xmlns="http://www.w3.org/2000/svg" width="11" height="11" fill="none" xmlns:v="https://vecta.io/nano"><path d="M9.574 7.297v1.375c.001.128-.026.254-.077.371s-.126.222-.22.308-.205.152-.326.193-.249.056-.376.045a9.07 9.07 0 0 1-3.955-1.407 8.94 8.94 0 0 1-2.75-2.75A9.07 9.07 0 0 1 .462 1.458c-.011-.127.004-.254.044-.375S.612.851.698.757s.19-.169.307-.221.242-.078.37-.078h1.375c.222-.002.438.077.607.222s.279.346.31.567c.058.44.166.872.321 1.288.062.164.075.342.038.514s-.121.329-.245.453l-.582.582c.652 1.147 1.603 2.098 2.75 2.75l.582-.582c.125-.123.282-.208.453-.245s.35-.023.514.038c.416.155.848.263 1.288.321.223.031.426.144.571.315s.223.391.217.615z" stroke="#717182" stroke-width=".917" stroke-linejoin="round"/></svg>