<svg xmlns="http://www.w3.org/2000/svg" width="24" height="24" fill="none" xmlns:v="https://vecta.io/nano"><path d="M10.282 5.651A7.46 7.46 0 0 1 12 5.455c5.727 0 9 6.545 9 6.545a15.14 15.14 0 0 1-1.767 2.61m-5.498-.875c-.225.241-.496.435-.797.569s-.626.206-.956.212-.657-.055-.963-.178-.583-.307-.816-.54-.417-.511-.54-.816-.184-.633-.178-.963.078-.655.212-.956.328-.572.569-.797M3 3l18 18m-4.14-4.14A8.24 8.24 0 0 1 12 18.546C6.273 18.546 3 12 3 12c1.018-1.897 2.429-3.554 4.14-4.86l9.72 9.72z" stroke="#9a9a9a" stroke-width="1.5" stroke-linecap="round" stroke-linejoin="round"/></svg>