<svg xmlns="http://www.w3.org/2000/svg" width="11" height="11" fill="none" xmlns:v="https://vecta.io/nano"><g clip-path="url(#A)" stroke="#717182" stroke-width=".917" stroke-linejoin="round"><path d="M5.776 9.991c.853-.736 3.391-3.119 3.391-5.408 0-.972-.386-1.905-1.074-2.593S6.473.917 5.5.917s-1.905.386-2.593 1.074-1.074 1.62-1.074 2.593c0 2.288 2.539 4.672 3.391 5.408a.46.46 0 0 0 .551 0z"/><path d="M5.5 5.958c.759 0 1.375-.616 1.375-1.375S6.259 3.208 5.5 3.208s-1.375.616-1.375 1.375.616 1.375 1.375 1.375z"/></g><defs><clipPath id="A"><path fill="#fff" d="M0 0h11v11H0z"/></clipPath></defs></svg>